<svg width="151" height="201" viewBox="0 0 151 201" fill="none" xmlns="http://www.w3.org/2000/svg">
<g clip-path="url(#clip0_536_656)">
<path d="M150.261 0.516602H0.95105V200.517H150.261V0.516602Z" fill="#F8E42F"/>
<path d="M150.261 0.516602H0.95105V200.517H150.261V0.516602Z" fill="#F8E42F"/>
<path d="M150.261 0.516602H0.95105V67.8247H150.261V0.516602Z" fill="#EC2426"/>
<path d="M26.618 46.2396C25.8772 45.8144 25.028 45.6006 24.0679 45.6006H19.3433V58.5595H22.8332V54.8203H24.0856C25.0456 54.8203 25.8948 54.6231 26.6281 54.2288C27.3613 53.8344 27.9283 53.2881 28.3264 52.5896C28.7246 51.8936 28.9236 51.112 28.9236 50.2473C28.9236 49.3826 28.7246 48.6532 28.3264 47.9429C27.9283 47.2326 27.3588 46.6649 26.618 46.2396ZM24.902 51.2284C24.6248 51.4755 24.2569 51.599 23.8008 51.599H22.8332V48.8765H23.8008C24.2443 48.8765 24.6072 49.0096 24.8919 49.2757C25.1767 49.5417 25.3178 49.8648 25.3178 50.2473C25.3178 50.6535 25.1792 50.9813 24.8995 51.2284H24.902Z" fill="#F8E42F"/>
<path d="M39.4615 52.3758C39.8345 51.7083 40.0209 50.9742 40.0209 50.1736C40.0209 49.3731 39.8143 48.6034 39.4036 47.9049C38.9929 47.2089 38.4133 46.6482 37.6674 46.2301C36.9216 45.8096 36.0749 45.6006 35.1249 45.6006H30.2869V58.5595H33.7768V54.6897H34.6688L36.6419 58.5595H40.6433L37.8917 53.9675C38.562 53.5731 39.0836 53.041 39.4565 52.3758H39.4615ZM36.0169 51.0977C35.7398 51.3448 35.3794 51.4683 34.9359 51.4683H33.7793V48.8765H34.9359C35.3794 48.8765 35.7398 49.0001 36.0169 49.2471C36.2941 49.4942 36.4352 49.803 36.4352 50.1736C36.4352 50.5442 36.2966 50.8531 36.0169 51.1001V51.0977Z" fill="#F8E42F"/>
<path d="M52.3302 46.2944C51.2795 45.6839 50.0725 45.3774 48.7067 45.3774C47.341 45.3774 46.134 45.6839 45.0832 46.2944C44.0325 46.905 43.2211 47.7198 42.6466 48.7389C42.072 49.7581 41.7848 50.8722 41.7848 52.0814C41.7848 53.2906 42.072 54.4071 42.6466 55.431C43.2211 56.4549 44.035 57.2721 45.0832 57.885C46.134 58.4955 47.341 58.802 48.7067 58.802C50.0725 58.802 51.2795 58.4955 52.3302 57.885C53.3785 57.2745 54.1924 56.4573 54.7669 55.431C55.3414 54.4071 55.6287 53.2906 55.6287 52.0814C55.6287 50.8722 55.3414 49.7581 54.7669 48.7389C54.1899 47.7198 53.3785 46.9073 52.3302 46.2944ZM51.6096 53.7087C51.3324 54.2147 50.9418 54.6233 50.4429 54.9298C49.944 55.2386 49.3644 55.393 48.7067 55.393C48.0491 55.393 47.4872 55.2386 46.9807 54.9298C46.4742 54.6209 46.0861 54.2147 45.814 53.7087C45.5418 53.2027 45.4058 52.6587 45.4058 52.079C45.4058 51.4994 45.5418 50.9554 45.814 50.4494C46.0861 49.9434 46.4742 49.5371 46.9807 49.2283C47.4872 48.9195 48.0617 48.7651 48.7067 48.7651C49.3518 48.7651 49.9415 48.9195 50.4429 49.2283C50.9418 49.5371 51.3324 49.9434 51.6096 50.4494C51.8868 50.9554 52.0279 51.4994 52.0279 52.079C52.0279 52.6587 51.8893 53.2027 51.6096 53.7087Z" fill="#F8E42F"/>
<path d="M67.4315 45.5083L64.5866 52.1529L61.7594 45.5083H59.4638L56.6567 58.5599H60.3735L61.4948 52.5425L64.2641 58.6525H64.9268L67.754 52.4498L68.9484 58.5599H72.6097L69.7271 45.5083H67.4315Z" fill="#F8E42F"/>
<path d="M84.1808 46.2944C83.13 45.6839 81.923 45.3774 80.5573 45.3774C79.1915 45.3774 77.9845 45.6839 76.9338 46.2944C75.883 46.905 75.0716 47.7198 74.4971 48.7389C73.9226 49.7581 73.6328 50.8722 73.6328 52.0814C73.6328 53.2906 73.9201 54.4071 74.4971 55.431C75.0716 56.4549 75.8855 57.2721 76.9338 57.885C77.9845 58.4955 79.1915 58.802 80.5573 58.802C81.923 58.802 83.13 58.4955 84.1808 57.885C85.2316 57.2745 86.0429 56.4573 86.6175 55.431C87.192 54.4071 87.4792 53.2906 87.4792 52.0814C87.4792 50.8722 87.192 49.7581 86.6175 48.7389C86.0429 47.7198 85.229 46.9073 84.1808 46.2944ZM83.4601 53.7087C83.1829 54.2147 82.7924 54.6233 82.2934 54.9298C81.7945 55.2386 81.215 55.393 80.5573 55.393C79.8996 55.393 79.3377 55.2386 78.8312 54.9298C78.3247 54.6209 77.9367 54.2147 77.6645 53.7087C77.3924 53.2027 77.2563 52.6587 77.2563 52.079C77.2563 51.4994 77.3924 50.9554 77.6645 50.4494C77.9367 49.9434 78.3247 49.5371 78.8312 49.2283C79.3377 48.9195 79.9122 48.7651 80.5573 48.7651C81.2024 48.7651 81.792 48.9195 82.2934 49.2283C82.7924 49.5371 83.1829 49.9434 83.4601 50.4494C83.7373 50.9554 83.8784 51.4994 83.8784 52.079C83.8784 52.6587 83.7398 53.2027 83.4601 53.7087Z" fill="#F8E42F"/>
<path d="M88.4493 48.8765H91.4076V58.5595H94.8976V48.8765H97.8004V45.6006H88.4493V48.8765Z" fill="#F8E42F"/>
<path d="M102.601 45.6006H99.1107V58.5595H102.601V45.6006Z" fill="#F8E42F"/>
<path d="M115.064 46.2944C114.013 45.6839 112.806 45.3774 111.44 45.3774C110.074 45.3774 108.867 45.6839 107.817 46.2944C106.766 46.905 105.955 47.7198 105.38 48.7389C104.806 49.7581 104.516 50.8722 104.516 52.0814C104.516 53.2906 104.803 54.4071 105.38 55.431C105.955 56.4549 106.768 57.2721 107.817 57.885C108.867 58.4955 110.074 58.802 111.44 58.802C112.806 58.802 114.013 58.4955 115.064 57.885C116.114 57.2745 116.926 56.4573 117.5 55.431C118.075 54.4071 118.362 53.2906 118.362 52.0814C118.362 50.8722 118.075 49.7581 117.5 48.7389C116.926 47.7198 116.112 46.9073 115.064 46.2944ZM114.343 53.7087C114.066 54.2147 113.675 54.6233 113.176 54.9298C112.677 55.2386 112.098 55.393 111.44 55.393C110.783 55.393 110.221 55.2386 109.714 54.9298C109.208 54.6209 108.82 54.2147 108.547 53.7087C108.275 53.2027 108.139 52.6587 108.139 52.079C108.139 51.4994 108.275 50.9554 108.547 50.4494C108.82 49.9434 109.208 49.5371 109.714 49.2283C110.221 48.9195 110.795 48.7651 111.44 48.7651C112.085 48.7651 112.675 48.9195 113.176 49.2283C113.675 49.5371 114.066 49.9434 114.343 50.4494C114.62 50.9554 114.761 51.4994 114.761 52.079C114.761 52.6587 114.623 53.2027 114.343 53.7087Z" fill="#F8E42F"/>
<path d="M128.399 45.601V52.5805L123.163 45.5273H120.297V58.5599H123.77V51.7467L128.986 58.6526H131.871V45.601H128.399Z" fill="#F8E42F"/>
<path d="M24.7357 23.147C25.8898 23.147 26.8876 22.1421 26.8876 21.0469C26.8876 19.89 25.8898 18.916 24.7357 18.916C23.5816 18.916 22.614 19.89 22.614 21.0469C22.614 22.1421 23.6119 23.147 24.7357 23.147Z" fill="#F8E42F"/>
<path d="M36.2109 28.8386C36.2109 30.3899 35.3391 31.1525 33.8095 31.1525H21.087C19.5599 31.1525 18.8116 30.3614 18.8116 28.8695V22.4791L14.7899 25.8264V28.9313C14.7899 32.2476 16.5992 34.7135 21.0567 34.7135H33.9355C37.9269 34.7135 40.2351 32.4923 40.2351 29.0239V20.3506L36.2134 21.6287V28.841L36.2109 28.8386Z" fill="#F8E42F"/>
<path d="M30.3473 23.147C31.5014 23.147 32.4992 22.1421 32.4992 21.0469C32.4992 19.89 31.5014 18.916 30.3473 18.916C29.1932 18.916 28.2281 19.89 28.2281 21.0469C28.2281 22.1421 29.226 23.147 30.3473 23.147Z" fill="#F8E42F"/>
<path d="M66.8923 17.8516C68.0464 17.8516 69.0442 16.8467 69.0442 15.7515C69.0442 14.5946 68.0464 13.6206 66.8923 13.6206C65.7382 13.6206 64.7706 14.5946 64.7706 15.7515C64.7706 16.8467 65.7685 17.8516 66.8923 17.8516Z" fill="#F8E42F"/>
<path d="M86.0051 37.4194C84.8813 37.4194 83.8834 38.3934 83.8834 39.5504C83.8834 40.6455 84.8813 41.6504 86.0051 41.6504C87.1289 41.6504 88.157 40.6455 88.157 39.5504C88.157 38.3934 87.1592 37.4194 86.0051 37.4194Z" fill="#F8E42F"/>
<path d="M80.3935 37.4194C79.2697 37.4194 78.2719 38.3934 78.2719 39.5504C78.2719 40.6455 79.2697 41.6504 80.3935 41.6504C81.5174 41.6504 82.5455 40.6455 82.5455 39.5504C82.5455 38.3934 81.5476 37.4194 80.3935 37.4194Z" fill="#F8E42F"/>
<path d="M99.6929 17.8516C100.847 17.8516 101.845 16.8467 101.845 15.7515C101.845 14.5946 100.847 13.6206 99.6929 13.6206C98.5388 13.6206 97.5712 14.5946 97.5712 15.7515C97.5712 16.8467 98.569 17.8516 99.6929 17.8516Z" fill="#F8E42F"/>
<path d="M116.563 17.6401C117.717 17.6401 118.715 16.6353 118.715 15.5401C118.715 14.3832 117.717 13.4092 116.563 13.4092C115.409 13.4092 114.444 14.3832 114.444 15.5401C114.444 16.6353 115.442 17.6401 116.563 17.6401Z" fill="#F8E42F"/>
<path d="M129.719 17.6401C130.873 17.6401 131.871 16.6353 131.871 15.5401C131.871 14.3832 130.873 13.4092 129.719 13.4092C128.565 13.4092 127.6 14.3832 127.6 15.5401C127.6 16.6353 128.598 17.6401 129.719 17.6401Z" fill="#F8E42F"/>
<path d="M132.808 28.8389C132.808 30.3902 131.936 31.1528 130.407 31.1528H124.546V29.2048C124.702 23.9404 121.582 20.5623 116.656 20.5623C113.849 20.5623 111.075 21.8713 109.515 23.8193L112.01 26.2543C113.38 24.7933 115.159 24.1851 116.656 24.1851C119.557 24.1851 120.428 26.7413 120.461 29.5112V31.1552H104.901C105.65 30.06 106.055 28.8722 106.086 27.6868C106.242 23.6696 103.997 20.5647 99.6928 20.5647C95.3889 20.5647 93.2067 23.6696 93.3327 27.6868C93.363 28.8746 93.7057 30.0291 94.4868 31.1552H89.4976C87.9706 31.1552 87.0962 30.395 87.0962 28.9031V21.2655L83.0745 22.5436V28.8437C83.0745 30.395 82.3262 31.1575 80.7664 31.1575H76.3416V30.4567C76.3416 25.0404 73.7235 20.5362 67.8599 20.7191C63.8685 20.7809 60.5624 23.6411 58.8792 26.5322V22.85L54.8576 23.9761V31.1575H49.2762C48.2153 31.1575 47.9356 30.6088 47.9356 29.7892V14.7563L43.8812 16.0344V30.3973C43.8812 32.6494 45.0983 34.7186 48.4018 34.7186H80.9529C82.6059 34.7186 84.0396 34.2007 85.1307 33.2267C86.2546 34.2316 87.7186 34.7186 89.2154 34.7186H97.9465C98.5689 34.7186 99.1938 34.6568 99.6928 34.5665C100.255 34.6877 100.817 34.7186 101.409 34.7186H130.53C134.522 34.7186 136.83 32.4974 136.83 29.029V20.3557L132.808 21.6337V28.8461V28.8389ZM72.3174 31.1504H60.1568C60.9051 28.017 64.6168 24.3942 67.9531 24.3942C71.2893 24.3942 72.3199 27.4065 72.3199 30.2976V31.1504H72.3174ZM99.7255 31.1504C98.1053 30.4496 97.2611 28.8081 97.2611 27.1024C97.2611 25.4893 98.1658 24.1804 99.6928 24.1804C101.22 24.1804 102.157 25.4893 102.157 27.1024C102.157 28.7154 101.222 30.5423 99.7255 31.1504Z" fill="#F8E42F"/>
<path d="M135.333 13.4092C134.209 13.4092 133.212 14.3832 133.212 15.5401C133.212 16.6353 134.209 17.6401 135.333 17.6401C136.457 17.6401 137.485 16.6353 137.485 15.5401C137.485 14.3832 136.487 13.4092 135.333 13.4092Z" fill="#F8E42F"/>
</g>
<defs>
<clipPath id="clip0_536_656">
<rect width="150" height="200" fill="white" transform="translate(0.5 0.5)"/>
</clipPath>
</defs>
</svg>
