<svg width="101" height="151" viewBox="0 0 101 151" fill="none" xmlns="http://www.w3.org/2000/svg">
<g clip-path="url(#clip0_536_243)">
<path d="M100.34 0.512695H0.80072V150.513H100.34V0.512695Z" fill="#F8E42F"/>
<path d="M100.34 0.512695H0.80072V150.513H100.34V0.512695Z" fill="#F8E42F"/>
<path d="M100.34 0.512695H0.80072V50.9938H100.34V0.512695Z" fill="#EC2426"/>
<path d="M17.912 34.805C17.4181 34.486 16.8519 34.3257 16.2119 34.3257H13.0621V44.0449H15.3888V41.2405H16.2237C16.8637 41.2405 17.4298 41.0926 17.9187 40.7968C18.4075 40.5011 18.7855 40.0913 19.0509 39.5675C19.3163 39.0454 19.449 38.4592 19.449 37.8107C19.449 37.1622 19.3163 36.6152 19.0509 36.0824C18.7855 35.5497 18.4058 35.1239 17.912 34.805ZM16.768 38.5465C16.5832 38.7318 16.3379 38.8245 16.0338 38.8245H15.3888V36.7827H16.0338C16.3295 36.7827 16.5714 36.8824 16.7612 37.082C16.9511 37.2815 17.0451 37.5238 17.0451 37.8107C17.0451 38.1154 16.9527 38.3612 16.7663 38.5465H16.768Z" fill="#F8E42F"/>
<path d="M26.4743 39.4071C26.7229 38.9064 26.8472 38.3559 26.8472 37.7555C26.8472 37.155 26.7095 36.5778 26.4357 36.0539C26.1618 35.5319 25.7755 35.1114 25.2782 34.7978C24.781 34.4825 24.2165 34.3257 23.5832 34.3257H20.3578V44.0449H22.6845V41.1425H23.2792L24.5945 44.0449H27.2622L25.4277 40.6009C25.8746 40.3051 26.2223 39.906 26.4709 39.4071H26.4743ZM24.1779 38.4485C23.9931 38.6338 23.7529 38.7265 23.4572 38.7265H22.6862V36.7827H23.4572C23.7529 36.7827 23.9931 36.8753 24.1779 37.0606C24.3627 37.2459 24.4568 37.4775 24.4568 37.7555C24.4568 38.0334 24.3644 38.265 24.1779 38.4503V38.4485Z" fill="#F8E42F"/>
<path d="M35.0534 34.8459C34.3529 34.388 33.5483 34.1582 32.6378 34.1582C31.7273 34.1582 30.9226 34.388 30.2221 34.8459C29.5216 35.3038 28.9807 35.915 28.5977 36.6793C28.2146 37.4437 28.0231 38.2793 28.0231 39.1862C28.0231 40.0931 28.2146 40.9305 28.5977 41.6984C28.9807 42.4663 29.5233 43.0792 30.2221 43.5389C30.9226 43.9968 31.7273 44.2266 32.6378 44.2266C33.5483 44.2266 34.3529 43.9968 35.0534 43.5389C35.7523 43.081 36.2949 42.4681 36.6779 41.6984C37.0609 40.9305 37.2524 40.0931 37.2524 39.1862C37.2524 38.2793 37.0609 37.4437 36.6779 36.6793C36.2932 35.915 35.7523 35.3056 35.0534 34.8459ZM34.573 40.4066C34.3882 40.7861 34.1278 41.0926 33.7952 41.3224C33.4626 41.5541 33.0762 41.6699 32.6378 41.6699C32.1993 41.6699 31.8247 41.5541 31.4871 41.3224C31.1494 41.0908 30.8907 40.7861 30.7093 40.4066C30.5278 40.0271 30.4371 39.6191 30.4371 39.1844C30.4371 38.7497 30.5278 38.3416 30.7093 37.9621C30.8907 37.5826 31.1494 37.278 31.4871 37.0463C31.8247 36.8147 32.2077 36.6989 32.6378 36.6989C33.0678 36.6989 33.4609 36.8147 33.7952 37.0463C34.1278 37.278 34.3882 37.5826 34.573 37.9621C34.7578 38.3416 34.8519 38.7497 34.8519 39.1844C34.8519 39.6191 34.7595 40.0271 34.573 40.4066Z" fill="#F8E42F"/>
<path d="M45.121 34.2563L43.2244 39.2398L41.3396 34.2563H39.8092L37.9378 44.045H40.4156L41.1632 39.532L43.0094 44.1145H43.4512L45.336 39.4625L46.1323 44.045H48.5731L46.6514 34.2563H45.121Z" fill="#F8E42F"/>
<path d="M56.2872 34.8459C55.5867 34.388 54.782 34.1582 53.8715 34.1582C52.961 34.1582 52.1563 34.388 51.4558 34.8459C50.7553 35.3038 50.2144 35.915 49.8314 36.6793C49.4484 37.4437 49.2552 38.2793 49.2552 39.1862C49.2552 40.0931 49.4467 40.9305 49.8314 41.6984C50.2144 42.4663 50.757 43.0792 51.4558 43.5389C52.1563 43.9968 52.961 44.2266 53.8715 44.2266C54.782 44.2266 55.5867 43.9968 56.2872 43.5389C56.9877 43.081 57.5286 42.4681 57.9116 41.6984C58.2946 40.9305 58.4861 40.0931 58.4861 39.1862C58.4861 38.2793 58.2946 37.4437 57.9116 36.6793C57.5286 35.915 56.986 35.3056 56.2872 34.8459ZM55.8067 40.4066C55.6219 40.7861 55.3616 41.0926 55.0289 41.3224C54.6963 41.5541 54.3099 41.6699 53.8715 41.6699C53.4331 41.6699 53.0584 41.5541 52.7208 41.3224C52.3831 41.0908 52.1244 40.7861 51.943 40.4066C51.7616 40.0271 51.6709 39.6191 51.6709 39.1844C51.6709 38.7497 51.7616 38.3416 51.943 37.9621C52.1244 37.5826 52.3831 37.278 52.7208 37.0463C53.0584 36.8147 53.4414 36.6989 53.8715 36.6989C54.3015 36.6989 54.6946 36.8147 55.0289 37.0463C55.3616 37.278 55.6219 37.5826 55.8067 37.9621C55.9915 38.3416 56.0856 38.7497 56.0856 39.1844C56.0856 39.6191 55.9932 40.0271 55.8067 40.4066Z" fill="#F8E42F"/>
<path d="M59.1329 36.7827H61.1051V44.0449H63.4317V36.7827H65.3669V34.3257H59.1329V36.7827Z" fill="#F8E42F"/>
<path d="M68.5671 34.3257H66.2405V44.0449H68.5671V34.3257Z" fill="#F8E42F"/>
<path d="M76.8758 34.8459C76.1753 34.388 75.3706 34.1582 74.4601 34.1582C73.5496 34.1582 72.745 34.388 72.0445 34.8459C71.3439 35.3038 70.803 35.915 70.42 36.6793C70.037 37.4437 69.8438 38.2793 69.8438 39.1862C69.8438 40.0931 70.0353 40.9305 70.42 41.6984C70.803 42.4663 71.3456 43.0792 72.0445 43.5389C72.745 43.9968 73.5496 44.2266 74.4601 44.2266C75.3706 44.2266 76.1753 43.9968 76.8758 43.5389C77.5763 43.081 78.1172 42.4681 78.5002 41.6984C78.8833 40.9305 79.0748 40.0931 79.0748 39.1862C79.0748 38.2793 78.8833 37.4437 78.5002 36.6793C78.1172 35.915 77.5746 35.3056 76.8758 34.8459ZM76.3953 40.4066C76.2106 40.7861 75.9502 41.0926 75.6176 41.3224C75.2849 41.5541 74.8986 41.6699 74.4601 41.6699C74.0217 41.6699 73.6471 41.5541 73.3094 41.3224C72.9718 41.0908 72.713 40.7861 72.5316 40.4066C72.3502 40.0271 72.2595 39.6191 72.2595 39.1844C72.2595 38.7497 72.3502 38.3416 72.5316 37.9621C72.713 37.5826 72.9718 37.278 73.3094 37.0463C73.6471 36.8147 74.0301 36.6989 74.4601 36.6989C74.8902 36.6989 75.2833 36.8147 75.6176 37.0463C75.9502 37.278 76.2106 37.5826 76.3953 37.9621C76.5801 38.3416 76.6742 38.7497 76.6742 39.1844C76.6742 39.6191 76.5818 40.0271 76.3953 40.4066Z" fill="#F8E42F"/>
<path d="M85.7657 34.3257V39.5604L82.275 34.2705H80.3649V44.0449H82.6798V38.935L86.1572 44.1144H88.0806V34.3257H85.7657Z" fill="#F8E42F"/>
<path d="M16.6571 17.4847C17.4265 17.4847 18.0917 16.7311 18.0917 15.9097C18.0917 15.042 17.4265 14.3115 16.6571 14.3115C15.8877 14.3115 15.2426 15.042 15.2426 15.9097C15.2426 16.7311 15.9078 17.4847 16.6571 17.4847Z" fill="#F8E42F"/>
<path d="M24.3073 21.7537C24.3073 22.9172 23.726 23.4891 22.7064 23.4891H14.2246C13.2066 23.4891 12.7077 22.8958 12.7077 21.7769V16.9841L10.0266 19.4945V21.8232C10.0266 24.3105 11.2328 26.1599 14.2045 26.1599H22.7904C25.4513 26.1599 26.9901 24.494 26.9901 21.8927V15.3877L24.309 16.3463V21.7555L24.3073 21.7537Z" fill="#F8E42F"/>
<path d="M20.3982 17.4847C21.1676 17.4847 21.8328 16.7311 21.8328 15.9097C21.8328 15.042 21.1676 14.3115 20.3982 14.3115C19.6288 14.3115 18.9854 15.042 18.9854 15.9097C18.9854 16.7311 19.6506 17.4847 20.3982 17.4847Z" fill="#F8E42F"/>
<path d="M44.7615 13.5135C45.5309 13.5135 46.1961 12.7599 46.1961 11.9385C46.1961 11.0708 45.5309 10.3403 44.7615 10.3403C43.9921 10.3403 43.347 11.0708 43.347 11.9385C43.347 12.7599 44.0123 13.5135 44.7615 13.5135Z" fill="#F8E42F"/>
<path d="M57.5034 28.1895C56.7542 28.1895 56.089 28.92 56.089 29.7876C56.089 30.609 56.7542 31.3627 57.5034 31.3627C58.2527 31.3627 58.9381 30.609 58.9381 29.7876C58.9381 28.92 58.2728 28.1895 57.5034 28.1895Z" fill="#F8E42F"/>
<path d="M53.7624 28.1895C53.0131 28.1895 52.3479 28.92 52.3479 29.7876C52.3479 30.609 53.0131 31.3627 53.7624 31.3627C54.5116 31.3627 55.197 30.609 55.197 29.7876C55.197 28.92 54.5317 28.1895 53.7624 28.1895Z" fill="#F8E42F"/>
<path d="M66.6286 13.5135C67.398 13.5135 68.0632 12.7599 68.0632 11.9385C68.0632 11.0708 67.398 10.3403 66.6286 10.3403C65.8592 10.3403 65.2141 11.0708 65.2141 11.9385C65.2141 12.7599 65.8793 13.5135 66.6286 13.5135Z" fill="#F8E42F"/>
<path d="M77.8754 13.3549C78.6448 13.3549 79.31 12.6012 79.31 11.7798C79.31 10.9121 78.6448 10.1816 77.8754 10.1816C77.106 10.1816 76.4626 10.9121 76.4626 11.7798C76.4626 12.6012 77.1278 13.3549 77.8754 13.3549Z" fill="#F8E42F"/>
<path d="M86.646 13.3549C87.4154 13.3549 88.0806 12.6012 88.0806 11.7798C88.0806 10.9121 87.4154 10.1816 86.646 10.1816C85.8766 10.1816 85.2332 10.9121 85.2332 11.7798C85.2332 12.6012 85.8984 13.3549 86.646 13.3549Z" fill="#F8E42F"/>
<path d="M88.7055 21.7538C88.7055 22.9173 88.1243 23.4892 87.1046 23.4892H83.1972V22.0282C83.3014 18.08 81.2217 15.5464 77.9375 15.5464C76.0661 15.5464 74.2166 16.5281 73.1767 17.9891L74.8398 19.8153C75.7537 18.7196 76.9396 18.2635 77.9375 18.2635C79.871 18.2635 80.4523 20.1806 80.4741 22.2581V23.491H70.1009C70.5998 22.6696 70.8702 21.7788 70.8904 20.8897C70.9945 17.8769 69.4978 15.5482 66.6285 15.5482C63.7593 15.5482 62.3045 17.8769 62.3885 20.8897C62.4087 21.7806 62.6371 22.6465 63.1579 23.491H59.8317C58.8137 23.491 58.2308 22.9209 58.2308 21.8019V16.0738L55.5497 17.0323V21.7574C55.5497 22.9209 55.0508 23.4928 54.0109 23.4928H51.0611V22.9672C51.0611 18.9049 49.3157 15.5268 45.4066 15.664C42.7457 15.7103 40.5417 17.8555 39.4195 20.0238V17.2622L36.7384 18.1067V23.4928H33.0175C32.3102 23.4928 32.1238 23.0812 32.1238 22.4665V11.1919L29.4208 12.1505V22.9226C29.4208 24.6117 30.2322 26.1636 32.4345 26.1636H54.1353C55.2373 26.1636 56.1931 25.7752 56.9205 25.0447C57.6697 25.7983 58.6457 26.1636 59.6436 26.1636H65.4644C65.8793 26.1636 66.2959 26.1172 66.6285 26.0495C67.0031 26.1404 67.3778 26.1636 67.7725 26.1636H87.1869C89.8479 26.1636 91.3866 24.4977 91.3866 21.8964V15.3914L88.7055 16.3499V21.7592V21.7538ZM48.3783 23.4874H40.2712C40.7701 21.1374 43.2446 18.4203 45.4687 18.4203C47.6929 18.4203 48.38 20.6795 48.38 22.8478V23.4874H48.3783ZM66.6504 23.4874C65.5702 22.9618 65.0075 21.7307 65.0075 20.4514C65.0075 19.2416 65.6105 18.2599 66.6285 18.2599C67.6465 18.2599 68.2715 19.2416 68.2715 20.4514C68.2715 21.6612 67.6482 23.0313 66.6504 23.4874Z" fill="#F8E42F"/>
<path d="M90.3888 10.1816C89.6395 10.1816 88.9743 10.9121 88.9743 11.7798C88.9743 12.6012 89.6395 13.3549 90.3888 13.3549C91.138 13.3549 91.8234 12.6012 91.8234 11.7798C91.8234 10.9121 91.1582 10.1816 90.3888 10.1816Z" fill="#F8E42F"/>
</g>
<defs>
<clipPath id="clip0_536_243">
<rect width="100" height="150" fill="white" transform="translate(0.5 0.5)"/>
</clipPath>
</defs>
</svg>
