<svg width="24" height="18" viewBox="0 0 24 18" fill="none" xmlns="http://www.w3.org/2000/svg">
<path d="M1 3.50002V14.5C1 15.1085 1.49156 15.6 2.1 15.6C2.70844 15.6 3.2 15.1085 3.2 14.5V3.50002C3.2 2.89159 2.70844 2.40002 2.1 2.40002C1.49156 2.40002 1 2.89159 1 3.50002ZM5.72312 8.22315C5.29344 8.65284 5.29344 9.35065 5.72312 9.78034L10.1231 14.1803C10.5528 14.61 11.2506 14.61 11.6803 14.1803C12.11 13.7507 12.11 13.0528 11.6803 12.6231L9.15719 10.1H21.9C22.5084 10.1 23 9.60846 23 9.00002C23 8.39159 22.5084 7.90002 21.9 7.90002H9.15719L11.6803 5.3769C12.11 4.94721 12.11 4.2494 11.6803 3.81971C11.2506 3.39002 10.5528 3.39002 10.1231 3.81971L5.72312 8.21971V8.22315Z" fill="#006C50"/>
</svg>
