<svg width="20" height="19" viewBox="0 0 20 19" fill="none" xmlns="http://www.w3.org/2000/svg">
<g clip-path="url(#clip0_7026_678)">
<path d="M8.79514 1.84039C9.00694 1.43067 8.84722 0.927197 8.44097 0.715392C8.03472 0.503586 7.52778 0.663308 7.31597 1.06956L4.08333 7.28831H1.11111C0.496528 7.28831 0 7.78484 0 8.39942C0 9.014 0.496528 9.51053 1.11111 9.51053L2.91319 16.7154C3.15972 17.705 4.04861 18.3994 5.06944 18.3994H14.9306C15.9514 18.3994 16.8403 17.705 17.0868 16.7154L18.8889 9.51053C19.5035 9.51053 20 9.014 20 8.39942C20 7.78484 19.5035 7.28831 18.8889 7.28831H15.9167L12.684 1.06956C12.4722 0.663308 11.9687 0.503586 11.559 0.715392C11.1493 0.927197 10.9931 1.43067 11.2049 1.84039L14.0382 7.28831H5.9618L8.79514 1.84039ZM6.66667 11.1772V14.5105C6.66667 14.8161 6.41667 15.0661 6.11111 15.0661C5.80556 15.0661 5.55556 14.8161 5.55556 14.5105V11.1772C5.55556 10.8716 5.80556 10.6216 6.11111 10.6216C6.41667 10.6216 6.66667 10.8716 6.66667 11.1772ZM10 10.6216C10.3056 10.6216 10.5556 10.8716 10.5556 11.1772V14.5105C10.5556 14.8161 10.3056 15.0661 10 15.0661C9.69444 15.0661 9.44444 14.8161 9.44444 14.5105V11.1772C9.44444 10.8716 9.69444 10.6216 10 10.6216ZM14.4444 11.1772V14.5105C14.4444 14.8161 14.1944 15.0661 13.8889 15.0661C13.5833 15.0661 13.3333 14.8161 13.3333 14.5105V11.1772C13.3333 10.8716 13.5833 10.6216 13.8889 10.6216C14.1944 10.6216 14.4444 10.8716 14.4444 11.1772Z" fill="#727273"/>
</g>
<defs>
<clipPath id="clip0_7026_678">
<rect width="20" height="17.7778" fill="white" transform="translate(0 0.510559)"/>
</clipPath>
</defs>
</svg>
