<svg width="16" height="16" viewBox="0 0 16 16" fill="none" xmlns="http://www.w3.org/2000/svg">
<g clip-path="url(#clip0_7034_1307)">
<path d="M8 0C7.44688 0 7 0.446875 7 1V1.6C4.71875 2.0625 3 4.08125 3 6.5V7.0875C3 8.55625 2.45937 9.975 1.48438 11.075L1.25312 11.3344C0.990625 11.6281 0.928125 12.05 1.0875 12.4094C1.24687 12.7688 1.60625 13 2 13H14C14.3938 13 14.75 12.7688 14.9125 12.4094C15.075 12.05 15.0094 11.6281 14.7469 11.3344L14.5156 11.075C13.5406 9.975 13 8.55937 13 7.0875V6.5C13 4.08125 11.2812 2.0625 9 1.6V1C9 0.446875 8.55313 0 8 0ZM9.41562 15.4156C9.79062 15.0406 10 14.5312 10 14H8H6C6 14.5312 6.20937 15.0406 6.58437 15.4156C6.95937 15.7906 7.46875 16 8 16C8.53125 16 9.04062 15.7906 9.41562 15.4156ZM3.54375 0.48125C3.25938 0.18125 2.78437 0.16875 2.48438 0.45625C0.953125 1.9125 0 3.97187 0 6.25C0 6.66563 0.334375 7 0.75 7C1.16562 7 1.5 6.66563 1.5 6.25C1.5 4.39687 2.275 2.72813 3.51875 1.54375C3.81875 1.25938 3.83125 0.784375 3.54375 0.484375V0.48125ZM12.4812 1.54375C13.725 2.72813 14.5 4.39687 14.5 6.25C14.5 6.66563 14.8344 7 15.25 7C15.6656 7 16 6.66563 16 6.25C16 3.97187 15.0469 1.9125 13.5188 0.45625C13.2188 0.171875 12.7438 0.18125 12.4594 0.48125C12.175 0.78125 12.1844 1.25625 12.4844 1.54062L12.4812 1.54375Z" fill="#727273"/>
</g>
<defs>
<clipPath id="clip0_7034_1307">
<rect width="16" height="16" fill="white"/>
</clipPath>
</defs>
</svg>
