<svg width="18" height="19" viewBox="0 0 18 19" fill="none" xmlns="http://www.w3.org/2000/svg">
<g clip-path="url(#clip0_7026_586)">
<path d="M8.00508 0.810803C8.55352 0.262366 9.44297 0.262366 9.99492 0.810803L12.6 3.41588C13.0395 3.85533 13.0395 4.56901 12.6 5.00846L9.79805 7.81041C9.35859 8.24987 8.64492 8.24987 8.20547 7.81041L5.40352 5.00494C4.96406 4.56549 4.96406 3.85182 5.40352 3.41237L8.00859 0.807288L8.00508 0.810803ZM4.60547 5.80299L7.40742 8.60494C7.84687 9.0444 7.84687 9.75807 7.40742 10.1975L4.60547 12.996C4.16602 13.4354 3.45234 13.4354 3.01289 12.996L0.411328 10.3944C-0.137109 9.84596 -0.137109 8.95651 0.411328 8.40455L3.01641 5.79948C3.45586 5.36002 4.16953 5.36002 4.60898 5.79948L4.60547 5.80299ZM5.40352 13.794L8.20547 10.9921C8.64492 10.5526 9.35859 10.5526 9.79805 10.9921L12.5965 13.794C13.0359 14.2335 13.0359 14.9471 12.5965 15.3866L9.99141 17.9917C9.44297 18.5401 8.55352 18.5401 8.00156 17.9917L5.39648 15.3866C4.95703 14.9471 4.95703 14.2335 5.39648 13.794H5.40352ZM13.3945 12.996L10.5926 10.194C10.1531 9.75455 10.1531 9.04088 10.5926 8.60143L13.3945 5.80299C13.834 5.36354 14.5477 5.36354 14.9871 5.80299L17.5922 8.40807C18.1406 8.95651 18.1406 9.84596 17.5922 10.3979L14.9871 13.003C14.5477 13.4424 13.834 13.4424 13.3945 13.003V12.996Z" fill="#727273"/>
</g>
<defs>
<clipPath id="clip0_7026_586">
<rect width="18" height="18" fill="white" transform="translate(0 0.399475)"/>
</clipPath>
</defs>
</svg>
