<svg width="18" height="18" viewBox="0 0 18 18" fill="none" xmlns="http://www.w3.org/2000/svg">
<g clip-path="url(#clip0_7026_364)">
<path d="M17.4337 5.85703C17.5462 6.16289 17.4512 6.50391 17.2087 6.72187L15.6864 8.10703C15.7251 8.39883 15.7462 8.69766 15.7462 9C15.7462 9.30234 15.7251 9.60117 15.6864 9.89297L17.2087 11.2781C17.4512 11.4961 17.5462 11.8371 17.4337 12.143C17.279 12.5613 17.0926 12.9621 16.8782 13.3488L16.7129 13.6336C16.4809 14.0203 16.2208 14.3859 15.936 14.7305C15.7286 14.9836 15.384 15.068 15.0747 14.9695L13.1165 14.3473C12.6454 14.7094 12.1251 15.0117 11.5696 15.2402L11.1301 17.2477C11.0598 17.5676 10.8137 17.8207 10.4903 17.8734C10.0051 17.9543 9.50592 17.9965 8.99615 17.9965C8.48639 17.9965 7.98717 17.9543 7.50201 17.8734C7.17857 17.8207 6.93248 17.5676 6.86217 17.2477L6.42271 15.2402C5.86725 15.0117 5.34693 14.7094 4.87584 14.3473L2.92115 14.973C2.61178 15.0715 2.26725 14.9836 2.05982 14.734C1.77506 14.3895 1.5149 14.0238 1.28287 13.6371L1.11764 13.3523C0.903183 12.9656 0.716855 12.5648 0.562167 12.1465C0.449667 11.8406 0.544589 11.4996 0.787167 11.2816L2.30943 9.89648C2.27076 9.60117 2.24967 9.30234 2.24967 9C2.24967 8.69766 2.27076 8.39883 2.30943 8.10703L0.787167 6.72187C0.544589 6.50391 0.449667 6.16289 0.562167 5.85703C0.716855 5.43867 0.903183 5.03789 1.11764 4.65117L1.28287 4.36641C1.5149 3.97969 1.77506 3.61406 2.05982 3.26953C2.26725 3.01641 2.61178 2.93203 2.92115 3.03047L4.87935 3.65273C5.35045 3.29063 5.87076 2.98828 6.42623 2.75977L6.86568 0.752344C6.936 0.432422 7.18209 0.179297 7.50553 0.126562C7.99068 0.0421875 8.4899 0 8.99967 0C9.50943 0 10.0087 0.0421875 10.4938 0.123047C10.8172 0.175781 11.0633 0.428906 11.1337 0.748828L11.5731 2.75625C12.1286 2.98477 12.6489 3.28711 13.12 3.64922L15.0782 3.02695C15.3876 2.92852 15.7321 3.01641 15.9395 3.26602C16.2243 3.61055 16.4844 3.97617 16.7165 4.36289L16.8817 4.64766C17.0962 5.03437 17.2825 5.43516 17.4372 5.85352L17.4337 5.85703ZM8.99967 11.8125C9.74559 11.8125 10.461 11.5162 10.9884 10.9887C11.5159 10.4613 11.8122 9.74592 11.8122 9C11.8122 8.25408 11.5159 7.53871 10.9884 7.01126C10.461 6.48382 9.74559 6.1875 8.99967 6.1875C8.25375 6.1875 7.53838 6.48382 7.01093 7.01126C6.48348 7.53871 6.18717 8.25408 6.18717 9C6.18717 9.74592 6.48348 10.4613 7.01093 10.9887C7.53838 11.5162 8.25375 11.8125 8.99967 11.8125Z" fill="#727273"/>
</g>
<defs>
<clipPath id="clip0_7026_364">
<rect width="18" height="18" fill="white"/>
</clipPath>
</defs>
</svg>
