<svg width="22" height="19" viewBox="0 0 22 19" fill="none" xmlns="http://www.w3.org/2000/svg">
<path d="M4.95 0.7995C5.67935 0.7995 6.37882 1.08923 6.89454 1.60496C7.41027 2.12068 7.7 2.82015 7.7 3.5495C7.7 4.27884 7.41027 4.97832 6.89454 5.49404C6.37882 6.00977 5.67935 6.2995 4.95 6.2995C4.22065 6.2995 3.52118 6.00977 3.00546 5.49404C2.48973 4.97832 2.2 4.27884 2.2 3.5495C2.2 2.82015 2.48973 2.12068 3.00546 1.60496C3.52118 1.08923 4.22065 0.7995 4.95 0.7995ZM17.6 0.7995C18.3293 0.7995 19.0288 1.08923 19.5445 1.60496C20.0603 2.12068 20.35 2.82015 20.35 3.5495C20.35 4.27884 20.0603 4.97832 19.5445 5.49404C19.0288 6.00977 18.3293 6.2995 17.6 6.2995C16.8707 6.2995 16.1712 6.00977 15.6555 5.49404C15.1397 4.97832 14.85 4.27884 14.85 3.5495C14.85 2.82015 15.1397 2.12068 15.6555 1.60496C16.1712 1.08923 16.8707 0.7995 17.6 0.7995ZM0 11.0673C0 9.04263 1.64312 7.3995 3.66781 7.3995H5.13562C5.68219 7.3995 6.20125 7.51981 6.66875 7.73294C6.62406 7.98044 6.60344 8.23825 6.60344 8.4995C6.60344 9.81262 7.18094 10.9917 8.09187 11.7995C8.085 11.7995 8.07813 11.7995 8.06781 11.7995H0.732187C0.33 11.7995 0 11.4695 0 11.0673ZM13.9322 11.7995C13.9253 11.7995 13.9184 11.7995 13.9081 11.7995C14.8225 10.9917 15.3966 9.81262 15.3966 8.4995C15.3966 8.23825 15.3725 7.98387 15.3313 7.73294C15.7988 7.51637 16.3178 7.3995 16.8644 7.3995H18.3322C20.3569 7.3995 22 9.04263 22 11.0673C22 11.4729 21.67 11.7995 21.2678 11.7995H13.9356H13.9322ZM7.7 8.4995C7.7 7.62429 8.04768 6.78492 8.66655 6.16605C9.28542 5.54718 10.1248 5.1995 11 5.1995C11.8752 5.1995 12.7146 5.54718 13.3335 6.16605C13.9523 6.78492 14.3 7.62429 14.3 8.4995C14.3 9.37471 13.9523 10.2141 13.3335 10.833C12.7146 11.4518 11.8752 11.7995 11 11.7995C10.1248 11.7995 9.28542 11.4518 8.66655 10.833C8.04768 10.2141 7.7 9.37471 7.7 8.4995ZM4.4 17.4817C4.4 14.9517 6.45219 12.8995 8.98219 12.8995H13.0144C15.5478 12.8995 17.6 14.9517 17.6 17.4817C17.6 17.987 17.1909 18.3995 16.6822 18.3995H5.31438C4.80906 18.3995 4.39656 17.9904 4.39656 17.4817H4.4Z" fill="#727273"/>
</svg>
